<svg xmlns="http://www.w3.org/2000/svg" xmlns:xlink="http://www.w3.org/1999/xlink" width="500" zoomAndPan="magnify" viewBox="0 0 375 374.999991" height="500" preserveAspectRatio="xMidYMid meet" version="1.0"><defs><g/><clipPath id="be87609749"><path d="M 6 8 L 362 8 L 362 363 L 6 363 Z M 6 8 " clip-rule="nonzero"/></clipPath><clipPath id="a951d530bc"><path d="M 189.898438 -66.890625 L 383.777344 135.726562 L 125.632812 382.730469 L -68.242188 180.109375 Z M 189.898438 -66.890625 " clip-rule="nonzero"/></clipPath><clipPath id="51d4b7c271"><path d="M 189.898438 -66.890625 L 436.902344 191.25 L 178.757812 438.253906 L -68.242188 180.109375 Z M 189.898438 -66.890625 " clip-rule="nonzero"/></clipPath></defs><g clip-path="url(#be87609749)"><g clip-path="url(#a951d530bc)"><g clip-path="url(#51d4b7c271)"><path fill="#8cc03e" d="M 265.777344 339.695312 C 251.5 347.085938 236.152344 352.203125 220.480469 355.316406 C 207.660156 357.777344 194.644531 359.082031 181.613281 359.019531 C 179.878906 359.0625 178.144531 358.910156 176.414062 358.847656 C 174.683594 358.753906 172.945312 358.714844 171.21875 358.582031 L 166.039062 358.105469 L 163.449219 357.871094 L 160.871094 357.515625 L 155.714844 356.824219 C 154.003906 356.558594 152.304688 356.21875 150.59375 355.925781 C 147.164062 355.390625 143.796875 354.554688 140.398438 353.832031 C 139.914062 353.726562 139.402344 353.609375 138.867188 353.496094 C 138.339844 353.351562 137.792969 353.203125 137.222656 353.046875 C 136.085938 352.734375 134.859375 352.394531 133.558594 352.035156 C 130.929688 351.375 128.074219 350.351562 124.921875 349.3125 C 124.140625 349.042969 123.328125 348.796875 122.519531 348.492188 C 121.714844 348.175781 120.894531 347.855469 120.058594 347.527344 C 118.390625 346.871094 116.660156 346.191406 114.875 345.492188 C 111.398438 343.875 107.613281 342.34375 103.871094 340.3125 C 88.589844 332.75 72.167969 320.78125 58.230469 306.335938 C 44.414062 291.777344 33.183594 274.84375 26.304688 259.246094 C 24.433594 255.414062 23.074219 251.566406 21.613281 248.023438 C 20.992188 246.207031 20.386719 244.453125 19.804688 242.753906 C 19.515625 241.90625 19.230469 241.070312 18.953125 240.253906 C 18.683594 239.433594 18.472656 238.613281 18.238281 237.816406 C 17.335938 234.625 16.441406 231.722656 15.898438 229.070312 C 15.597656 227.753906 15.3125 226.515625 15.050781 225.363281 C 14.921875 224.789062 14.792969 224.234375 14.675781 223.699219 C 14.582031 223.164062 14.492188 222.648438 14.40625 222.15625 C 12.03125 209.339844 10.8125 196.324219 10.964844 183.292969 C 11.261719 169.414062 13.265625 155.613281 16.453125 142.089844 C 20.253906 126.570312 26.042969 111.457031 34.054688 97.523438 C 41.898438 83.492188 52.046875 70.765625 63.605469 59.507812 C 75.355469 48.457031 88.519531 38.882812 102.882812 31.664062 C 117.15625 24.277344 132.507812 19.160156 148.179688 16.042969 C 161 13.582031 174.015625 12.277344 187.046875 12.339844 C 188.78125 12.300781 190.511719 12.453125 192.246094 12.515625 C 193.976562 12.605469 195.710938 12.648438 197.441406 12.777344 L 205.210938 13.492188 L 207.785156 13.84375 L 212.941406 14.535156 C 214.65625 14.804688 216.355469 15.140625 218.066406 15.4375 C 221.496094 15.96875 224.863281 16.804688 228.257812 17.53125 C 228.746094 17.636719 229.257812 17.75 229.792969 17.867188 C 230.316406 18.011719 230.863281 18.160156 231.4375 18.3125 C 232.574219 18.628906 233.800781 18.964844 235.101562 19.324219 C 237.730469 19.984375 240.585938 21.007812 243.738281 22.046875 C 244.519531 22.316406 245.332031 22.566406 246.140625 22.871094 C 246.945312 23.183594 247.765625 23.503906 248.601562 23.832031 C 250.269531 24.488281 252 25.167969 253.785156 25.871094 C 257.261719 27.484375 261.042969 29.015625 264.789062 31.050781 C 280.070312 38.613281 296.492188 50.578125 310.429688 65.023438 C 324.242188 79.582031 335.476562 96.519531 342.355469 112.113281 C 344.222656 115.945312 345.585938 119.792969 347.046875 123.339844 C 347.667969 125.152344 348.269531 126.910156 348.855469 128.605469 C 349.144531 129.457031 349.429688 130.289062 349.707031 131.105469 C 349.976562 131.925781 350.1875 132.75 350.421875 133.542969 C 351.320312 136.734375 352.21875 139.636719 352.761719 142.289062 C 353.0625 143.609375 353.347656 144.847656 353.609375 145.996094 C 353.738281 146.570312 353.863281 147.125 353.984375 147.660156 C 354.078125 148.195312 354.167969 148.714844 354.253906 149.203125 C 356.628906 162.023438 357.847656 175.035156 357.695312 188.066406 C 357.398438 201.945312 355.394531 215.746094 352.207031 229.273438 C 348.40625 244.789062 342.617188 259.902344 334.605469 273.835938 C 326.761719 287.871094 316.613281 300.597656 305.054688 311.851562 C 293.300781 322.902344 280.140625 332.476562 265.777344 339.695312 Z M 307.914062 314.667969 L 307.921875 314.65625 C 319.722656 303.164062 330.101562 290.167969 338.136719 275.835938 C 346.335938 261.605469 352.261719 246.152344 356.097656 230.285156 L 357.769531 222.820312 C 357.769531 222.820312 358.160156 220.753906 358.746094 217.652344 C 359.417969 214.558594 359.882812 210.371094 360.496094 206.210938 C 360.847656 202.015625 361.355469 197.835938 361.40625 194.679688 C 361.542969 191.527344 361.632812 189.425781 361.632812 189.425781 C 361.632812 189.425781 361.652344 188.902344 361.652344 187.980469 C 361.65625 187.0625 361.664062 185.746094 361.671875 184.171875 C 361.769531 181.011719 361.511719 176.816406 361.347656 172.613281 C 361.199219 170.515625 360.980469 168.421875 360.8125 166.457031 C 360.722656 165.476562 360.632812 164.527344 360.550781 163.628906 C 360.429688 162.734375 360.308594 161.886719 360.199219 161.105469 C 359.765625 157.980469 359.476562 155.898438 359.476562 155.898438 C 359.476562 155.898438 359.4375 155.421875 359.304688 154.71875 C 359.179688 154.011719 359.011719 153.070312 358.851562 152.132812 C 358.519531 150.25 358.191406 148.371094 358.191406 148.371094 C 358.101562 147.867188 358.015625 147.335938 357.917969 146.789062 C 357.800781 146.242188 357.671875 145.675781 357.539062 145.085938 C 357.273438 143.90625 356.988281 142.636719 356.683594 141.289062 C 356.128906 138.574219 355.21875 135.601562 354.300781 132.335938 C 354.0625 131.519531 353.84375 130.679688 353.570312 129.839844 C 353.289062 129 352.996094 128.148438 352.703125 127.277344 C 352.109375 125.542969 351.492188 123.742188 350.859375 121.882812 C 349.371094 118.25 347.972656 114.316406 346.066406 110.390625 C 339.03125 94.421875 327.542969 77.074219 313.402344 62.179688 C 299.144531 47.394531 282.320312 35.152344 266.675781 27.417969 C 262.839844 25.34375 258.964844 23.773438 255.40625 22.128906 C 253.578125 21.410156 251.808594 20.714844 250.097656 20.046875 C 249.242188 19.710938 248.398438 19.386719 247.578125 19.0625 C 246.75 18.753906 245.917969 18.5 245.117188 18.226562 C 241.890625 17.164062 238.964844 16.125 236.277344 15.453125 C 234.941406 15.085938 233.6875 14.746094 232.519531 14.425781 C 231.9375 14.269531 231.375 14.117188 230.839844 13.972656 C 230.289062 13.855469 229.769531 13.742188 229.269531 13.632812 C 229.269531 13.632812 227.40625 13.222656 225.539062 12.808594 C 224.605469 12.601562 223.675781 12.398438 222.976562 12.242188 C 222.28125 12.078125 221.804688 12.019531 221.804688 12.019531 C 221.804688 12.019531 219.738281 11.636719 216.632812 11.0625 C 215.859375 10.921875 215.019531 10.765625 214.128906 10.601562 C 213.234375 10.480469 212.289062 10.351562 211.3125 10.21875 C 209.359375 9.960938 207.277344 9.648438 205.1875 9.410156 C 200.996094 9.058594 196.816406 8.617188 193.65625 8.578125 C 192.082031 8.515625 190.765625 8.464844 189.847656 8.425781 C 188.929688 8.386719 188.402344 8.382812 188.402344 8.382812 C 188.402344 8.382812 186.300781 8.378906 183.148438 8.378906 C 179.988281 8.292969 175.792969 8.613281 171.585938 8.78125 C 167.402344 9.210938 163.195312 9.488281 160.078125 10.023438 C 156.953125 10.472656 154.867188 10.773438 154.867188 10.773438 L 147.34375 12.113281 C 131.320312 15.246094 115.621094 20.484375 101.042969 28.046875 C 86.367188 35.445312 72.929688 45.238281 60.925781 56.523438 L 60.914062 56.527344 L 60.828125 56.609375 L 60.734375 56.703125 C 48.9375 68.199219 38.558594 81.191406 30.523438 95.523438 C 22.324219 109.757812 16.398438 125.207031 12.5625 141.078125 L 10.890625 148.539062 C 10.890625 148.539062 10.5 150.609375 9.914062 153.710938 C 9.242188 156.800781 8.777344 160.988281 8.164062 165.152344 C 7.8125 169.34375 7.304688 173.523438 7.253906 176.683594 C 7.117188 179.832031 7.023438 181.933594 7.023438 181.933594 C 7.023438 181.933594 7.007812 182.460938 7.003906 183.378906 C 7 184.300781 6.992188 185.613281 6.988281 187.191406 C 6.886719 190.347656 7.144531 194.546875 7.3125 198.75 C 7.460938 200.847656 7.679688 202.9375 7.847656 204.902344 C 7.9375 205.882812 8.023438 206.832031 8.105469 207.734375 C 8.230469 208.628906 8.351562 209.472656 8.460938 210.253906 C 8.894531 213.382812 9.183594 215.464844 9.183594 215.464844 C 9.183594 215.464844 9.222656 215.941406 9.359375 216.644531 C 9.480469 217.347656 9.648438 218.289062 9.808594 219.226562 C 10.140625 221.109375 10.46875 222.992188 10.46875 222.992188 C 10.554688 223.496094 10.644531 224.023438 10.738281 224.574219 C 10.859375 225.121094 10.988281 225.6875 11.121094 226.277344 C 11.386719 227.457031 11.671875 228.722656 11.976562 230.074219 C 12.53125 232.789062 13.441406 235.757812 14.359375 239.027344 C 14.597656 239.839844 14.8125 240.683594 15.089844 241.523438 C 15.371094 242.359375 15.660156 243.214844 15.957031 244.082031 C 16.550781 245.820312 17.167969 247.621094 17.800781 249.476562 C 19.289062 253.109375 20.6875 257.042969 22.59375 260.96875 C 29.625 276.9375 41.121094 294.285156 55.257812 309.183594 C 69.515625 323.964844 86.339844 336.210938 101.984375 343.941406 C 105.820312 346.019531 109.691406 347.585938 113.253906 349.234375 C 115.082031 349.949219 116.851562 350.644531 118.5625 351.316406 C 119.417969 351.648438 120.257812 351.976562 121.082031 352.296875 C 121.910156 352.609375 122.738281 352.859375 123.542969 353.136719 C 126.769531 354.195312 129.695312 355.238281 132.382812 355.910156 C 133.71875 356.273438 134.972656 356.613281 136.136719 356.933594 C 136.71875 357.089844 137.285156 357.242188 137.820312 357.386719 C 138.371094 357.503906 138.890625 357.621094 139.390625 357.726562 C 139.390625 357.726562 141.253906 358.140625 143.121094 358.550781 C 144.054688 358.757812 144.984375 358.964844 145.683594 359.117188 C 146.378906 359.285156 146.855469 359.34375 146.855469 359.34375 C 146.855469 359.34375 148.921875 359.726562 152.023438 360.296875 C 152.800781 360.441406 153.640625 360.597656 154.527344 360.757812 C 155.425781 360.882812 156.367188 361.011719 157.347656 361.144531 C 159.300781 361.398438 161.382812 361.710938 163.46875 361.949219 C 167.660156 362.300781 171.84375 362.742188 175.003906 362.785156 C 176.578125 362.847656 177.890625 362.898438 178.8125 362.933594 C 179.730469 362.972656 180.257812 362.976562 180.257812 362.976562 C 180.257812 362.976562 182.359375 362.980469 185.511719 362.980469 C 188.667969 363.070312 192.867188 362.746094 197.070312 362.578125 C 201.257812 362.148438 205.464844 361.871094 208.578125 361.335938 C 211.707031 360.886719 213.789062 360.589844 213.789062 360.589844 L 221.316406 359.246094 C 237.339844 356.113281 253.039062 350.875 267.617188 343.3125 C 282.292969 335.914062 295.730469 326.121094 307.734375 314.839844 L 307.746094 314.832031 L 307.832031 314.75 L 307.914062 314.667969 " fill-opacity="1" fill-rule="nonzero"/></g></g></g><g fill="#8cc03e" fill-opacity="1"><g transform="translate(180.235316, 364.647204)"><g><path d="M 2.140625 -0.15625 L 0.640625 -20.59375 L 8.0625 -21.140625 C 9.726562 -21.265625 11.207031 -21.109375 12.5 -20.671875 C 13.789062 -20.234375 14.894531 -19.578125 15.8125 -18.703125 C 16.726562 -17.835938 17.441406 -16.800781 17.953125 -15.59375 C 18.472656 -14.394531 18.785156 -13.09375 18.890625 -11.6875 C 19.003906 -10.132812 18.867188 -8.710938 18.484375 -7.421875 C 18.109375 -6.128906 17.507812 -5.003906 16.6875 -4.046875 C 15.875 -3.085938 14.863281 -2.316406 13.65625 -1.734375 C 12.457031 -1.160156 11.09375 -0.816406 9.5625 -0.703125 Z M 14.875 -11.40625 C 14.800781 -12.382812 14.597656 -13.273438 14.265625 -14.078125 C 13.941406 -14.890625 13.5 -15.570312 12.9375 -16.125 C 12.382812 -16.675781 11.710938 -17.085938 10.921875 -17.359375 C 10.140625 -17.628906 9.269531 -17.726562 8.3125 -17.65625 L 4.859375 -17.40625 L 5.859375 -3.9375 L 9.3125 -4.1875 C 10.289062 -4.257812 11.144531 -4.492188 11.875 -4.890625 C 12.613281 -5.296875 13.210938 -5.820312 13.671875 -6.46875 C 14.128906 -7.113281 14.460938 -7.851562 14.671875 -8.6875 C 14.878906 -9.53125 14.945312 -10.4375 14.875 -11.40625 Z M 14.875 -11.40625 "/></g></g></g><g fill="#8cc03e" fill-opacity="1"><g transform="translate(214.0906, 360.843408)"><g><path d="M 15.015625 -7.40625 L 15.875 -4.015625 L 2.078125 -0.53125 L -2.9375 -20.40625 L 10.609375 -23.8125 L 11.46875 -20.421875 L 1.78125 -17.984375 L 2.984375 -13.1875 L 11.34375 -15.296875 L 12.140625 -12.171875 L 3.78125 -10.0625 L 5.078125 -4.890625 Z M 15.015625 -7.40625 "/></g></g></g><g fill="#8cc03e" fill-opacity="1"><g transform="translate(243.609178, 352.306943)"><g><path d="M -4.4375 -20.453125 L 6.90625 -8.53125 L 5.640625 -24.9375 L 9.46875 -26.640625 L 10.484375 -4.65625 L 7.40625 -3.296875 L -8.265625 -18.765625 Z M -4.4375 -20.453125 "/></g></g></g><g fill="#8cc03e" fill-opacity="1"><g transform="translate(273.136442, 337.839407)"><g><path d="M 11.6875 -12 L 13.625 -9.09375 L 1.78125 -1.1875 L -9.609375 -18.234375 L 2 -26 L 3.953125 -23.09375 L -4.34375 -17.546875 L -1.609375 -13.4375 L 5.5625 -18.21875 L 7.359375 -15.53125 L 0.1875 -10.75 L 3.15625 -6.3125 Z M 11.6875 -12 "/></g></g></g><g fill="#8cc03e" fill-opacity="1"><g transform="translate(297.987359, 319.918663)"><g><path d="M 1.5625 -1.46875 L -12.4375 -16.4375 L -9.53125 -19.15625 L 2.078125 -6.75 L 9.71875 -13.890625 L 12.109375 -11.328125 Z M 1.5625 -1.46875 "/></g></g></g><g fill="#8cc03e" fill-opacity="1"><g transform="translate(319.451527, 298.528773)"><g><path d="M 6.640625 -8.640625 C 5.742188 -7.441406 4.695312 -6.523438 3.5 -5.890625 C 2.300781 -5.253906 1.050781 -4.878906 -0.25 -4.765625 C -1.5625 -4.648438 -2.863281 -4.773438 -4.15625 -5.140625 C -5.445312 -5.503906 -6.617188 -6.078125 -7.671875 -6.859375 C -8.765625 -7.679688 -9.65625 -8.671875 -10.34375 -9.828125 C -11.039062 -10.984375 -11.503906 -12.207031 -11.734375 -13.5 C -11.972656 -14.800781 -11.945312 -16.113281 -11.65625 -17.4375 C -11.375 -18.757812 -10.800781 -20 -9.9375 -21.15625 C -9.039062 -22.34375 -7.984375 -23.242188 -6.765625 -23.859375 C -5.554688 -24.472656 -4.296875 -24.832031 -2.984375 -24.9375 C -1.679688 -25.039062 -0.390625 -24.910156 0.890625 -24.546875 C 2.179688 -24.179688 3.34375 -23.613281 4.375 -22.84375 C 5.46875 -22.019531 6.363281 -21.035156 7.0625 -19.890625 C 7.757812 -18.753906 8.222656 -17.546875 8.453125 -16.265625 C 8.679688 -14.984375 8.648438 -13.675781 8.359375 -12.34375 C 8.078125 -11.019531 7.503906 -9.785156 6.640625 -8.640625 Z M -5.25 -10.09375 C -4.539062 -9.5625 -3.769531 -9.15625 -2.9375 -8.875 C -2.113281 -8.59375 -1.296875 -8.46875 -0.484375 -8.5 C 0.328125 -8.53125 1.109375 -8.726562 1.859375 -9.09375 C 2.617188 -9.457031 3.28125 -10.015625 3.84375 -10.765625 C 4.414062 -11.535156 4.765625 -12.332031 4.890625 -13.15625 C 5.015625 -13.988281 4.96875 -14.804688 4.75 -15.609375 C 4.53125 -16.410156 4.171875 -17.160156 3.671875 -17.859375 C 3.179688 -18.554688 2.597656 -19.15625 1.921875 -19.65625 C 1.210938 -20.1875 0.445312 -20.585938 -0.375 -20.859375 C -1.207031 -21.140625 -2.03125 -21.265625 -2.84375 -21.234375 C -3.65625 -21.210938 -4.429688 -21.015625 -5.171875 -20.640625 C -5.921875 -20.273438 -6.570312 -19.722656 -7.125 -18.984375 C -7.707031 -18.210938 -8.066406 -17.40625 -8.203125 -16.5625 C -8.335938 -15.726562 -8.296875 -14.914062 -8.078125 -14.125 C -7.859375 -13.34375 -7.5 -12.601562 -7 -11.90625 C -6.507812 -11.207031 -5.925781 -10.601562 -5.25 -10.09375 Z M -5.25 -10.09375 "/></g></g></g><g fill="#8cc03e" fill-opacity="1"><g transform="translate(339.486612, 269.493464)"><g><path d="M 0.953125 -1.921875 L -17.375 -11.09375 L -13.484375 -18.859375 C -13.054688 -19.703125 -12.488281 -20.390625 -11.78125 -20.921875 C -11.070312 -21.460938 -10.300781 -21.847656 -9.46875 -22.078125 C -8.632812 -22.304688 -7.773438 -22.382812 -6.890625 -22.3125 C -6.015625 -22.238281 -5.207031 -22.019531 -4.46875 -21.65625 C -3.695312 -21.269531 -3.015625 -20.753906 -2.421875 -20.109375 C -1.828125 -19.472656 -1.375 -18.757812 -1.0625 -17.96875 C -0.75 -17.175781 -0.59375 -16.34375 -0.59375 -15.46875 C -0.59375 -14.59375 -0.804688 -13.734375 -1.234375 -12.890625 L -3.40625 -8.5625 L 2.734375 -5.484375 Z M -6.53125 -10.125 L -4.46875 -14.234375 C -4.132812 -14.898438 -4.125 -15.582031 -4.4375 -16.28125 C -4.757812 -16.988281 -5.375 -17.570312 -6.28125 -18.03125 C -6.75 -18.257812 -7.203125 -18.394531 -7.640625 -18.4375 C -8.078125 -18.488281 -8.484375 -18.46875 -8.859375 -18.375 C -9.234375 -18.28125 -9.554688 -18.113281 -9.828125 -17.875 C -10.097656 -17.644531 -10.3125 -17.375 -10.46875 -17.0625 L -12.46875 -13.09375 Z M -6.53125 -10.125 "/></g></g></g><g fill="#8cc03e" fill-opacity="1"><g transform="translate(352.476287, 241.007634)"><g><path d="M 1.453125 -16.6875 L 4.796875 -15.65625 L 0.625 -2.046875 L -18.96875 -8.0625 L -14.875 -21.421875 L -11.53125 -20.390625 L -14.453125 -10.84375 L -9.734375 -9.390625 L -7.203125 -17.625 L -4.109375 -16.6875 L -6.640625 -8.453125 L -1.546875 -6.890625 Z M 1.453125 -16.6875 "/></g></g></g><g fill="#8cc03e" fill-opacity="1"><g transform="translate(360.471067, 211.349158)"><g><path d="M 0.265625 -2.125 L -20.0625 -4.734375 L -18.90625 -13.71875 C -18.78125 -14.65625 -18.46875 -15.492188 -17.96875 -16.234375 C -17.476562 -16.984375 -16.878906 -17.601562 -16.171875 -18.09375 C -15.460938 -18.582031 -14.675781 -18.9375 -13.8125 -19.15625 C -12.957031 -19.382812 -12.125 -19.445312 -11.3125 -19.34375 C -9.988281 -19.164062 -8.832031 -18.675781 -7.84375 -17.875 C -6.863281 -17.082031 -6.195312 -16.09375 -5.84375 -14.90625 L 2.390625 -18.5625 L 1.8125 -14.125 L -5.53125 -10.84375 L -6.03125 -6.953125 L 0.78125 -6.078125 Z M -9.5 -7.40625 L -8.859375 -12.34375 C -8.816406 -12.71875 -8.859375 -13.070312 -8.984375 -13.40625 C -9.117188 -13.738281 -9.316406 -14.035156 -9.578125 -14.296875 C -9.847656 -14.566406 -10.175781 -14.796875 -10.5625 -14.984375 C -10.945312 -15.171875 -11.367188 -15.296875 -11.828125 -15.359375 C -12.296875 -15.421875 -12.742188 -15.398438 -13.171875 -15.296875 C -13.597656 -15.191406 -13.972656 -15.023438 -14.296875 -14.796875 C -14.617188 -14.578125 -14.878906 -14.3125 -15.078125 -14 C -15.285156 -13.695312 -15.414062 -13.367188 -15.46875 -13.015625 L -16.078125 -8.25 Z M -9.5 -7.40625 "/></g></g></g><g fill="#8cc03e" fill-opacity="1"><g transform="translate(82.833271, 251.201495)"><g><path d="M 6.644531 39.585938 C 30.050781 27.160156 34.960938 10.691406 34.960938 -19.648438 L 34.960938 -152.5625 L 22.828125 -152.5625 L 22.828125 -19.648438 C 22.828125 5.488281 20.804688 20.515625 -1.445312 32.363281 Z M 6.644531 39.585938 "/></g></g></g><g fill="#8cc03e" fill-opacity="1"><g transform="translate(121.840775, 251.201495)"><g><path d="M 91.019531 -41.609375 L 34.960938 -152.5625 L 21.09375 -152.5625 L 21.09375 0 L 32.363281 0 L 32.363281 -112.113281 C 32.363281 -119.625 32.074219 -126.847656 31.785156 -134.359375 L 85.238281 -28.605469 L 95.929688 -28.605469 L 148.519531 -134.070312 C 148.230469 -126.558594 148.230469 -119.335938 148.230469 -112.113281 L 148.230469 0 L 160.078125 0 L 160.078125 -152.5625 L 146.496094 -152.5625 Z M 91.019531 -41.609375 "/></g></g></g></svg>