<?xml version="1.0" standalone="no"?>
<!DOCTYPE svg PUBLIC "-//W3C//DTD SVG 20010904//EN"
 "http://www.w3.org/TR/2001/REC-SVG-20010904/DTD/svg10.dtd">
<svg version="1.0" xmlns="http://www.w3.org/2000/svg"
 width="500.000000pt" height="500.000000pt" viewBox="0 0 500.000000 500.000000"
 preserveAspectRatio="xMidYMid meet">

<g transform="translate(0.000000,500.000000) scale(0.100000,-0.100000)"
fill="#000000" stroke="none">
<path d="M2543 4825 c8 -16 18 -60 22 -97 7 -69 15 -84 40 -75 19 8 -19 135
-52 173 l-24 29 14 -30z"/>
<path d="M2445 4820 c-15 -16 -55 -135 -55 -163 0 -5 10 -7 23 -5 20 3 23 10
28 73 3 39 11 80 17 93 16 27 11 28 -13 2z"/>
<path d="M2320 4411 c0 -10 39 -41 52 -41 17 0 6 17 -22 33 -16 10 -30 14 -30
8z"/>
<path d="M2646 4401 c-15 -10 -23 -21 -18 -25 11 -7 60 29 52 38 -3 3 -18 -3
-34 -13z"/>
<path d="M807 4346 c-4 -9 -4 -23 0 -33 5 -14 8 -12 15 7 5 13 5 27 0 32 -6 6
-12 3 -15 -6z"/>
<path d="M4190 4330 c0 -18 4 -29 10 -25 6 3 10 15 10 25 0 10 -4 22 -10 25
-6 4 -10 -7 -10 -25z"/>
<path d="M2456 4198 c-9 -79 -6 -2917 3 -2963 5 -22 9 647 10 1488 0 840 -1
1527 -3 1527 -2 0 -6 -24 -10 -52z"/>
<path d="M4182 3284 l-2 -622 -147 -6 c-165 -8 -348 -24 -390 -35 -42 -11 -38
-27 9 -39 140 -35 843 -42 1016 -9 79 15 108 31 74 41 -12 4 -23 15 -25 24 -4
15 -5 15 -6 1 -1 -14 -8 -15 -48 -8 -41 8 -363 29 -445 29 l-28 0 -3 623 -2
622 -3 -621z"/>
<path d="M657 3817 c-87 -264 -357 -1115 -356 -1122 1 -17 65 175 225 678 86
269 154 490 152 493 -2 2 -12 -20 -21 -49z"/>
<path d="M813 3255 c0 -445 2 -524 7 -322 3 147 3 412 0 590 -6 274 -7 234 -7
-268z"/>
<path d="M991 3835 c-1 -11 44 -155 222 -710 128 -395 145 -448 146 -431 2 22
-366 1161 -368 1141z"/>
<path d="M4330 3837 c0 -14 369 -1169 376 -1176 14 -14 -27 119 -245 798 -107
330 -131 401 -131 378z"/>
<path d="M3962 3708 c-16 -51 -93 -293 -171 -537 -78 -244 -140 -445 -138
-447 2 -3 36 93 75 213 182 563 273 855 268 860 -2 3 -18 -37 -34 -89z"/>
<path d="M728 3016 c-2 -12 -17 -28 -38 -38 -25 -13 -29 -18 -15 -18 27 0 65
27 65 46 0 8 6 14 14 14 25 0 25 15 1 16 -17 1 -25 -4 -27 -20z"/>
<path d="M865 3028 c11 -6 32 -24 47 -40 14 -16 36 -28 50 -28 20 1 19 3 -9
15 -18 8 -38 25 -45 40 -8 17 -19 25 -37 25 -25 -1 -25 -1 -6 -12z"/>
<path d="M4093 3009 c-7 -19 -21 -31 -44 -38 -33 -9 -33 -9 -6 -10 25 -1 67
28 67 47 0 5 10 14 23 19 22 10 22 10 -4 10 -19 0 -28 -7 -36 -28z"/>
<path d="M4238 3028 c12 -6 22 -15 22 -20 0 -17 41 -48 63 -48 18 1 17 3 -10
15 -20 8 -35 23 -39 39 -5 20 -12 26 -33 25 -26 0 -26 0 -3 -11z"/>
<path d="M581 2935 c-19 -54 -56 -80 -112 -80 -42 0 -49 -3 -49 -20 0 -28 -27
-65 -48 -66 -12 0 -13 -2 -4 -6 17 -7 62 35 62 57 0 14 12 19 52 22 41 4 57
11 79 35 14 17 28 36 31 43 3 10 9 10 29 -3 42 -27 103 -26 139 4 l25 20 -32
-15 c-51 -25 -100 -21 -132 12 l-28 28 -12 -31z"/>
<path d="M1015 2936 c-26 -25 -35 -28 -77 -24 -27 3 -56 11 -66 19 -10 8 -7 4
6 -8 28 -27 107 -32 138 -8 26 20 29 19 42 -10 16 -34 69 -65 115 -65 29 0 37
-4 37 -18 0 -24 44 -66 62 -59 9 4 8 6 -4 6 -21 1 -48 38 -48 66 0 17 -7 20
-49 20 -41 0 -55 5 -79 28 -16 16 -33 40 -38 55 l-9 27 -30 -29z"/>
<path d="M3950 2956 c0 -55 -60 -106 -125 -106 -25 0 -35 -4 -35 -16 0 -8 -13
-29 -29 -45 -32 -31 -29 -38 6 -14 11 8 24 26 27 40 5 21 12 25 42 25 44 0 86
24 108 61 16 27 19 28 44 15 53 -27 102 -24 139 10 l28 26 -29 -21 c-44 -32
-97 -28 -141 10 -27 24 -35 27 -35 15z"/>
<path d="M4382 2939 c-40 -36 -95 -39 -138 -8 l-29 21 28 -26 c37 -34 99 -38
143 -9 21 13 23 12 39 -15 23 -38 64 -62 108 -62 29 0 37 -5 47 -30 7 -17 21
-35 31 -40 30 -16 29 -11 -3 20 -18 19 -28 38 -26 48 4 15 -1 17 -29 14 -62
-8 -114 30 -132 94 l-6 22 -33 -29z"/>
<path d="M3641 2703 c-1 -6 -4 -20 -7 -30 -5 -17 -5 -17 6 0 6 10 9 23 6 30
-3 9 -5 9 -5 0z"/>
<path d="M535 2649 c-162 -9 -276 -27 -282 -45 -11 -34 157 -49 567 -49 414 0
570 14 570 50 0 17 -119 34 -323 45 -187 11 -322 10 -532 -1z"/>
<path d="M347 2445 c26 -78 140 -195 244 -250 69 -36 154 -65 193 -65 32 0 12
10 -50 27 -145 37 -271 133 -376 283 -14 19 -16 20 -11 5z"/>
<path d="M4621 2411 c-72 -112 -223 -220 -354 -254 -63 -17 -83 -27 -50 -27
36 0 127 31 196 68 79 41 181 136 222 205 37 64 26 71 -14 8z"/>
<path d="M2425 366 c-76 -24 -215 -106 -215 -126 0 -6 113 -10 291 -10 228 0
290 3 287 13 -8 23 -129 97 -195 117 -74 23 -111 24 -168 6z"/>
</g>
</svg>
